<svg xmlns="http://www.w3.org/2000/svg" width="35.078" height="59.219" viewBox="0 0 35.078 59.219">
    <defs>
        <style>
            .prefix__cls-1{fill:#fff}.prefix__cls-2{fill:#e10f1a}.prefix__cls-3{fill:#3bbeef}.prefix__cls-4{fill:#ffdb05}
        </style>
    </defs>
    <g id="prefix__logo_cristal" data-name="logo cristal" transform="translate(312.21 -189.324)">
        <path id="prefix__Rectangle_14" d="M0 0H11.078V6.538H0z" class="prefix__cls-1" data-name="Rectangle 14" transform="translate(-300.21 205.162)"/>
        <path id="prefix__Path_10" d="M-304.628 240.946l27.7 15.5v10.03l-5.551 3.135-27.683-15.493v-13.172z" class="prefix__cls-1" data-name="Path 10" transform="translate(-1.121 -28.325)"/>
        <path id="prefix__Rectangle_15" d="M0 0H11.078V6.538H0z" class="prefix__cls-2" data-name="Rectangle 15" transform="translate(-311.288 205.162)"/>
        <path id="prefix__Rectangle_16" d="M0 0H11.078V6.538H0z" class="prefix__cls-2" data-name="Rectangle 16" transform="translate(-289.132 205.162)"/>
        <path id="prefix__Path_11" d="M-310.168 282.506l16.617 9.388 11.067-6.258-27.684-15.494z" class="prefix__cls-3" data-name="Path 11" transform="translate(-1.121 -44.345)"/>
        <path id="prefix__Path_12" d="M-270.2 240.946h-27.7l27.7 15.5z" class="prefix__cls-3" data-name="Path 12" transform="translate(-7.855 -28.325)"/>
        <path id="prefix__Path_13" d="M-312.21 222.461v34.354a.1.1 0 0 0 .059.093l17.435 9.76a.1.1 0 0 0 .088 0l17.436-9.76a.1.1 0 0 0 .059-.093v-34.337a.1.1 0 0 0-.1-.1h-34.889a.086.086 0 0 0-.086.086m34.156.939v6.332a.1.1 0 0 1-.1.1h-33.028a.1.1 0 0 1-.1-.1V223.4a.1.1 0 0 1 .1-.1h33.028a.1.1 0 0 1 .1.1m-16.662 42.248l-16.514-9.322a.1.1 0 0 1-.059-.093V230.86a.1.1 0 0 1 .1-.1h33.028a.1.1 0 0 1 .1.1v25.373a.1.1 0 0 1-.059.093l-16.514 9.322a.1.1 0 0 1-.088 0" class="prefix__cls-4" data-name="Path 13" transform="translate(0 -18.135)"/>
        <path id="prefix__Path_14" d="M-251.175 206.823l2.921 2.131a.049.049 0 0 0 .075-.055l-1.106-3.472a.049.049 0 0 1 .019-.055l2.914-2.045a.049.049 0 0 0-.028-.089h-3.545a.049.049 0 0 1-.046-.033l-1.186-3.562a.049.049 0 0 0-.093 0l-1.186 3.562a.049.049 0 0 1-.046.033h-3.544a.049.049 0 0 0-.028.089l2.914 2.045a.049.049 0 0 1 .019.055l-1.107 3.472a.049.049 0 0 0 .076.055l2.92-2.131a.049.049 0 0 1 .058 0" class="prefix__cls-4" data-name="Path 14" transform="translate(-30.801 -5.643)"/>
        <path id="prefix__Path_15" d="M-307.309 206.823l2.92 2.131a.049.049 0 0 0 .076-.055l-1.107-3.472a.049.049 0 0 1 .019-.055l2.914-2.045a.049.049 0 0 0-.028-.089h-3.545a.049.049 0 0 1-.047-.033l-1.186-3.562a.049.049 0 0 0-.093 0l-1.186 3.562a.05.05 0 0 1-.047.033h-3.544a.049.049 0 0 0-.028.089l2.914 2.045a.049.049 0 0 1 .018.055l-1.106 3.472a.049.049 0 0 0 .075.055l2.921-2.131a.049.049 0 0 1 .058 0" class="prefix__cls-4" data-name="Path 15" transform="translate(0 -5.643)"/>
        <path id="prefix__Path_16" d="M-281.587 199.409l4.082 2.978a.069.069 0 0 0 .106-.076l-1.547-4.854a.069.069 0 0 1 .026-.077l4.073-2.859a.068.068 0 0 0-.039-.125h-4.955a.068.068 0 0 1-.065-.046l-1.658-4.98a.069.069 0 0 0-.13 0l-1.658 4.98a.068.068 0 0 1-.065.046h-4.955a.069.069 0 0 0-.039.125l4.073 2.859a.069.069 0 0 1 .026.077l-1.546 4.854a.068.068 0 0 0 .106.076l4.082-2.978a.068.068 0 0 1 .081 0" class="prefix__cls-4" data-name="Path 16" transform="translate(-13.043)"/>
        <path id="prefix__Path_17" d="M-287.756 257.081c-.224-.956-.911-1.434-2.241-1.434-1.121 0-2.047.464-2.047 1.449 0 .881.732 1.165 1.553 1.315.329.075 1.614.314 2 .389 1.629.359 2.794 1.21 2.794 3.063 0 1.733-1.36 3.271-4.168 3.271-2.585 0-4.048-1.31-4.365-2.944l1.765-.372c.239 1.315 1.344 1.748 2.674 1.748s2.285-.568 2.285-1.629c0-1-.657-1.389-1.613-1.583l-2.076-.4c-1.659-.314-2.659-1.21-2.659-2.809 0-1.7 1.374-3.062 3.884-3.062 2.166 0 3.577 1.044 3.966 2.635z" class="prefix__cls-3" data-name="Path 17" transform="translate(-9.867 -35.531)"/>
        <path id="prefix__Path_18" d="M-263.753 274.89a4.094 4.094 0 0 1-4.263 3.041c-3.212 0-5.02-2.316-5.02-5.528s1.823-5.527 5.035-5.527a3.991 3.991 0 0 1 4.12 2.784l-1.79.369A2.164 2.164 0 0 0-268 268.5c-2.2 0-3.212 1.793-3.212 3.9s1 3.9 3.2 3.9a2.314 2.314 0 0 0 2.465-1.793z" class="prefix__cls-3" data-name="Path 18" transform="translate(-21.495 -42.553)"/>
    </g>
</svg>
